<?xml version="1.0" encoding="UTF-8" standalone="no"?><!DOCTYPE svg PUBLIC "-//W3C//DTD SVG 1.1//EN" "http://www.w3.org/Graphics/SVG/1.1/DTD/svg11.dtd"><!-- Generated by graphviz version 2.40.1 (20161225.0304)
 --><!-- Title: Tree Pages: 1 --><svg xmlns="http://www.w3.org/2000/svg" xmlns:xlink="http://www.w3.org/1999/xlink" width="1942pt" height="1619pt" viewBox="0.00 0.00 1942.48 1619.20">
<g id="graph0" class="graph" transform="scale(1 1) rotate(0) translate(4 1615.2)">
<title>Tree</title>
<polygon fill="#ffffff" stroke="transparent" points="-4,4 -4,-1615.2 1938.4844,-1615.2 1938.4844,4 -4,4"/>
<!-- 0 -->
<g id="node1" class="node">
<title>0</title>
<path fill="#f9fbfe" stroke="#000000" d="M1704.5094,-1611.2C1704.5094,-1611.2 1514.975,-1611.2 1514.975,-1611.2 1508.975,-1611.2 1502.975,-1605.2 1502.975,-1599.2 1502.975,-1599.2 1502.975,-1531.2 1502.975,-1531.2 1502.975,-1525.2 1508.975,-1519.2 1514.975,-1519.2 1514.975,-1519.2 1704.5094,-1519.2 1704.5094,-1519.2 1710.5094,-1519.2 1716.5094,-1525.2 1716.5094,-1531.2 1716.5094,-1531.2 1716.5094,-1599.2 1716.5094,-1599.2 1716.5094,-1605.2 1710.5094,-1611.2 1704.5094,-1611.2"/>
<text text-anchor="middle" x="1609.7422" y="-1594.6" font-family="Helvetica,sans-Serif" font-size="14.00" fill="#000000">age &lt;= 36.5</text>
<text text-anchor="middle" x="1609.7422" y="-1577.8" font-family="Helvetica,sans-Serif" font-size="14.00" fill="#000000">gini = 0.833</text>
<text text-anchor="middle" x="1609.7422" y="-1561" font-family="Helvetica,sans-Serif" font-size="14.00" fill="#000000">samples = 44</text>
<text text-anchor="middle" x="1609.7422" y="-1544.2" font-family="Helvetica,sans-Serif" font-size="14.00" fill="#000000">value = [6, 8, 6, 1, 9, 10, 1, 2, 1]</text>
<text text-anchor="middle" x="1609.7422" y="-1527.4" font-family="Helvetica,sans-Serif" font-size="14.00" fill="#000000">class = Indie Rock</text>
</g>
<!-- 1 -->
<g id="node2" class="node">
<title>1</title>
<path fill="#f9fafe" stroke="#000000" d="M1591.5094,-1483.2C1591.5094,-1483.2 1401.975,-1483.2 1401.975,-1483.2 1395.975,-1483.2 1389.975,-1477.2 1389.975,-1471.2 1389.975,-1471.2 1389.975,-1403.2 1389.975,-1403.2 1389.975,-1397.2 1395.975,-1391.2 1401.975,-1391.2 1401.975,-1391.2 1591.5094,-1391.2 1591.5094,-1391.2 1597.5094,-1391.2 1603.5094,-1397.2 1603.5094,-1403.2 1603.5094,-1403.2 1603.5094,-1471.2 1603.5094,-1471.2 1603.5094,-1477.2 1597.5094,-1483.2 1591.5094,-1483.2"/>
<text text-anchor="middle" x="1496.7422" y="-1466.6" font-family="Helvetica,sans-Serif" font-size="14.00" fill="#000000">age &lt;= 33.5</text>
<text text-anchor="middle" x="1496.7422" y="-1449.8" font-family="Helvetica,sans-Serif" font-size="14.00" fill="#000000">gini = 0.818</text>
<text text-anchor="middle" x="1496.7422" y="-1433" font-family="Helvetica,sans-Serif" font-size="14.00" fill="#000000">samples = 40</text>
<text text-anchor="middle" x="1496.7422" y="-1416.2" font-family="Helvetica,sans-Serif" font-size="14.00" fill="#000000">value = [6, 8, 2, 1, 9, 10, 1, 2, 1]</text>
<text text-anchor="middle" x="1496.7422" y="-1399.4" font-family="Helvetica,sans-Serif" font-size="14.00" fill="#000000">class = Indie Rock</text>
</g>
<!-- 0&#45;&gt;1 -->
<g id="edge1" class="edge">
<title>0-&gt;1</title>
<path fill="none" stroke="#000000" d="M1568.9466,-1518.9891C1560.9456,-1509.926 1552.4882,-1500.3459 1544.2889,-1491.0582"/>
<polygon fill="#000000" stroke="#000000" points="1546.7199,-1488.5234 1537.4779,-1483.3431 1541.4723,-1493.1562 1546.7199,-1488.5234"/>
<text text-anchor="middle" x="1535.9249" y="-1504.0948" font-family="Helvetica,sans-Serif" font-size="14.00" fill="#000000">True</text>
</g>
<!-- 42 -->
<g id="node43" class="node">
<title>42</title>
<path fill="#64e539" stroke="#000000" d="M1814.7272,-1474.9003C1814.7272,-1474.9003 1632.7572,-1474.9003 1632.7572,-1474.9003 1626.7572,-1474.9003 1620.7572,-1468.9003 1620.7572,-1462.9003 1620.7572,-1462.9003 1620.7572,-1411.4997 1620.7572,-1411.4997 1620.7572,-1405.4997 1626.7572,-1399.4997 1632.7572,-1399.4997 1632.7572,-1399.4997 1814.7272,-1399.4997 1814.7272,-1399.4997 1820.7272,-1399.4997 1826.7272,-1405.4997 1826.7272,-1411.4997 1826.7272,-1411.4997 1826.7272,-1462.9003 1826.7272,-1462.9003 1826.7272,-1468.9003 1820.7272,-1474.9003 1814.7272,-1474.9003"/>
<text text-anchor="middle" x="1723.7422" y="-1458.2" font-family="Helvetica,sans-Serif" font-size="14.00" fill="#000000">gini = 0.0</text>
<text text-anchor="middle" x="1723.7422" y="-1441.4" font-family="Helvetica,sans-Serif" font-size="14.00" fill="#000000">samples = 4</text>
<text text-anchor="middle" x="1723.7422" y="-1424.6" font-family="Helvetica,sans-Serif" font-size="14.00" fill="#000000">value = [0, 0, 4, 0, 0, 0, 0, 0, 0]</text>
<text text-anchor="middle" x="1723.7422" y="-1407.8" font-family="Helvetica,sans-Serif" font-size="14.00" fill="#000000">class = Dance</text>
</g>
<!-- 0&#45;&gt;42 -->
<g id="edge42" class="edge">
<title>0-&gt;42</title>
<path fill="none" stroke="#000000" d="M1650.8988,-1518.9891C1661.4669,-1507.1231 1672.8243,-1494.371 1683.3531,-1482.5492"/>
<polygon fill="#000000" stroke="#000000" points="1686.0986,-1484.729 1690.1358,-1474.9335 1680.8712,-1480.0734 1686.0986,-1484.729"/>
<text text-anchor="middle" x="1691.5797" y="-1495.6918" font-family="Helvetica,sans-Serif" font-size="14.00" fill="#000000">False</text>
</g>
<!-- 2 -->
<g id="node3" class="node">
<title>2</title>
<path fill="#fdfef7" stroke="#000000" d="M1476.7272,-1355.2C1476.7272,-1355.2 1294.7572,-1355.2 1294.7572,-1355.2 1288.7572,-1355.2 1282.7572,-1349.2 1282.7572,-1343.2 1282.7572,-1343.2 1282.7572,-1275.2 1282.7572,-1275.2 1282.7572,-1269.2 1288.7572,-1263.2 1294.7572,-1263.2 1294.7572,-1263.2 1476.7272,-1263.2 1476.7272,-1263.2 1482.7272,-1263.2 1488.7272,-1269.2 1488.7272,-1275.2 1488.7272,-1275.2 1488.7272,-1343.2 1488.7272,-1343.2 1488.7272,-1349.2 1482.7272,-1355.2 1476.7272,-1355.2"/>
<text text-anchor="middle" x="1385.7422" y="-1338.6" font-family="Helvetica,sans-Serif" font-size="14.00" fill="#000000">age &lt;= 32.5</text>
<text text-anchor="middle" x="1385.7422" y="-1321.8" font-family="Helvetica,sans-Serif" font-size="14.00" fill="#000000">gini = 0.828</text>
<text text-anchor="middle" x="1385.7422" y="-1305" font-family="Helvetica,sans-Serif" font-size="14.00" fill="#000000">samples = 32</text>
<text text-anchor="middle" x="1385.7422" y="-1288.2" font-family="Helvetica,sans-Serif" font-size="14.00" fill="#000000">value = [6, 8, 2, 1, 4, 7, 1, 2, 1]</text>
<text text-anchor="middle" x="1385.7422" y="-1271.4" font-family="Helvetica,sans-Serif" font-size="14.00" fill="#000000">class = Classical</text>
</g>
<!-- 1&#45;&gt;2 -->
<g id="edge2" class="edge">
<title>1-&gt;2</title>
<path fill="none" stroke="#000000" d="M1456.6687,-1390.9891C1448.8093,-1381.926 1440.5015,-1372.3459 1432.4474,-1363.0582"/>
<polygon fill="#000000" stroke="#000000" points="1434.9527,-1360.605 1425.7569,-1355.3431 1429.6643,-1365.1911 1434.9527,-1360.605"/>
</g>
<!-- 39 -->
<g id="node40" class="node">
<title>39</title>
<path fill="#b0eff5" stroke="#000000" d="M1699.7272,-1355.2C1699.7272,-1355.2 1517.7572,-1355.2 1517.7572,-1355.2 1511.7572,-1355.2 1505.7572,-1349.2 1505.7572,-1343.2 1505.7572,-1343.2 1505.7572,-1275.2 1505.7572,-1275.2 1505.7572,-1269.2 1511.7572,-1263.2 1517.7572,-1263.2 1517.7572,-1263.2 1699.7272,-1263.2 1699.7272,-1263.2 1705.7272,-1263.2 1711.7272,-1269.2 1711.7272,-1275.2 1711.7272,-1275.2 1711.7272,-1343.2 1711.7272,-1343.2 1711.7272,-1349.2 1705.7272,-1355.2 1699.7272,-1355.2"/>
<text text-anchor="middle" x="1608.7422" y="-1338.6" font-family="Helvetica,sans-Serif" font-size="14.00" fill="#000000">age &lt;= 35.0</text>
<text text-anchor="middle" x="1608.7422" y="-1321.8" font-family="Helvetica,sans-Serif" font-size="14.00" fill="#000000">gini = 0.469</text>
<text text-anchor="middle" x="1608.7422" y="-1305" font-family="Helvetica,sans-Serif" font-size="14.00" fill="#000000">samples = 8</text>
<text text-anchor="middle" x="1608.7422" y="-1288.2" font-family="Helvetica,sans-Serif" font-size="14.00" fill="#000000">value = [0, 0, 0, 0, 5, 3, 0, 0, 0]</text>
<text text-anchor="middle" x="1608.7422" y="-1271.4" font-family="Helvetica,sans-Serif" font-size="14.00" fill="#000000">class = HipHop</text>
</g>
<!-- 1&#45;&gt;39 -->
<g id="edge39" class="edge">
<title>1-&gt;39</title>
<path fill="none" stroke="#000000" d="M1537.1768,-1390.9891C1545.107,-1381.926 1553.4895,-1372.3459 1561.6163,-1363.0582"/>
<polygon fill="#000000" stroke="#000000" points="1564.4159,-1365.1737 1568.367,-1355.3431 1559.1479,-1360.5641 1564.4159,-1365.1737"/>
</g>
<!-- 3 -->
<g id="node4" class="node">
<title>3</title>
<path fill="#fdfef6" stroke="#000000" d="M1253.7272,-1227.2C1253.7272,-1227.2 1071.7572,-1227.2 1071.7572,-1227.2 1065.7572,-1227.2 1059.7572,-1221.2 1059.7572,-1215.2 1059.7572,-1215.2 1059.7572,-1147.2 1059.7572,-1147.2 1059.7572,-1141.2 1065.7572,-1135.2 1071.7572,-1135.2 1071.7572,-1135.2 1253.7272,-1135.2 1253.7272,-1135.2 1259.7272,-1135.2 1265.7272,-1141.2 1265.7272,-1147.2 1265.7272,-1147.2 1265.7272,-1215.2 1265.7272,-1215.2 1265.7272,-1221.2 1259.7272,-1227.2 1253.7272,-1227.2"/>
<text text-anchor="middle" x="1162.7422" y="-1210.6" font-family="Helvetica,sans-Serif" font-size="14.00" fill="#000000">age &lt;= 29.5</text>
<text text-anchor="middle" x="1162.7422" y="-1193.8" font-family="Helvetica,sans-Serif" font-size="14.00" fill="#000000">gini = 0.816</text>
<text text-anchor="middle" x="1162.7422" y="-1177" font-family="Helvetica,sans-Serif" font-size="14.00" fill="#000000">samples = 29</text>
<text text-anchor="middle" x="1162.7422" y="-1160.2" font-family="Helvetica,sans-Serif" font-size="14.00" fill="#000000">value = [4, 8, 2, 1, 4, 7, 0, 2, 1]</text>
<text text-anchor="middle" x="1162.7422" y="-1143.4" font-family="Helvetica,sans-Serif" font-size="14.00" fill="#000000">class = Classical</text>
</g>
<!-- 2&#45;&gt;3 -->
<g id="edge3" class="edge">
<title>2-&gt;3</title>
<path fill="none" stroke="#000000" d="M1305.5491,-1263.1699C1288.217,-1253.2214 1269.7866,-1242.6425 1252.1273,-1232.5062"/>
<polygon fill="#000000" stroke="#000000" points="1253.388,-1229.1943 1242.9728,-1227.2516 1249.9033,-1235.2653 1253.388,-1229.1943"/>
</g>
<!-- 36 -->
<g id="node37" class="node">
<title>36</title>
<path fill="#f2c09c" stroke="#000000" d="M1476.7272,-1227.2C1476.7272,-1227.2 1294.7572,-1227.2 1294.7572,-1227.2 1288.7572,-1227.2 1282.7572,-1221.2 1282.7572,-1215.2 1282.7572,-1215.2 1282.7572,-1147.2 1282.7572,-1147.2 1282.7572,-1141.2 1288.7572,-1135.2 1294.7572,-1135.2 1294.7572,-1135.2 1476.7272,-1135.2 1476.7272,-1135.2 1482.7272,-1135.2 1488.7272,-1141.2 1488.7272,-1147.2 1488.7272,-1147.2 1488.7272,-1215.2 1488.7272,-1215.2 1488.7272,-1221.2 1482.7272,-1227.2 1476.7272,-1227.2"/>
<text text-anchor="middle" x="1385.7422" y="-1210.6" font-family="Helvetica,sans-Serif" font-size="14.00" fill="#000000">gender &lt;= 0.5</text>
<text text-anchor="middle" x="1385.7422" y="-1193.8" font-family="Helvetica,sans-Serif" font-size="14.00" fill="#000000">gini = 0.444</text>
<text text-anchor="middle" x="1385.7422" y="-1177" font-family="Helvetica,sans-Serif" font-size="14.00" fill="#000000">samples = 3</text>
<text text-anchor="middle" x="1385.7422" y="-1160.2" font-family="Helvetica,sans-Serif" font-size="14.00" fill="#000000">value = [2, 0, 0, 0, 0, 0, 1, 0, 0]</text>
<text text-anchor="middle" x="1385.7422" y="-1143.4" font-family="Helvetica,sans-Serif" font-size="14.00" fill="#000000">class = Acoustic</text>
</g>
<!-- 2&#45;&gt;36 -->
<g id="edge36" class="edge">
<title>2-&gt;36</title>
<path fill="none" stroke="#000000" d="M1385.7422,-1262.9891C1385.7422,-1254.7417 1385.7422,-1246.0661 1385.7422,-1237.5724"/>
<polygon fill="#000000" stroke="#000000" points="1389.2423,-1237.3431 1385.7422,-1227.3431 1382.2423,-1237.3431 1389.2423,-1237.3431"/>
</g>
<!-- 4 -->
<g id="node5" class="node">
<title>4</title>
<path fill="#f4f6fe" stroke="#000000" d="M1030.7272,-1099.2C1030.7272,-1099.2 848.7572,-1099.2 848.7572,-1099.2 842.7572,-1099.2 836.7572,-1093.2 836.7572,-1087.2 836.7572,-1087.2 836.7572,-1019.2 836.7572,-1019.2 836.7572,-1013.2 842.7572,-1007.2 848.7572,-1007.2 848.7572,-1007.2 1030.7272,-1007.2 1030.7272,-1007.2 1036.7272,-1007.2 1042.7272,-1013.2 1042.7272,-1019.2 1042.7272,-1019.2 1042.7272,-1087.2 1042.7272,-1087.2 1042.7272,-1093.2 1036.7272,-1099.2 1030.7272,-1099.2"/>
<text text-anchor="middle" x="939.7422" y="-1082.6" font-family="Helvetica,sans-Serif" font-size="14.00" fill="#000000">age &lt;= 28.5</text>
<text text-anchor="middle" x="939.7422" y="-1065.8" font-family="Helvetica,sans-Serif" font-size="14.00" fill="#000000">gini = 0.835</text>
<text text-anchor="middle" x="939.7422" y="-1049" font-family="Helvetica,sans-Serif" font-size="14.00" fill="#000000">samples = 22</text>
<text text-anchor="middle" x="939.7422" y="-1032.2" font-family="Helvetica,sans-Serif" font-size="14.00" fill="#000000">value = [4, 4, 1, 1, 4, 5, 0, 2, 1]</text>
<text text-anchor="middle" x="939.7422" y="-1015.4" font-family="Helvetica,sans-Serif" font-size="14.00" fill="#000000">class = Indie Rock</text>
</g>
<!-- 3&#45;&gt;4 -->
<g id="edge4" class="edge">
<title>3-&gt;4</title>
<path fill="none" stroke="#000000" d="M1082.5491,-1135.1699C1065.217,-1125.2214 1046.7866,-1114.6425 1029.1273,-1104.5062"/>
<polygon fill="#000000" stroke="#000000" points="1030.388,-1101.1943 1019.9728,-1099.2516 1026.9033,-1107.2653 1030.388,-1101.1943"/>
</g>
<!-- 29 -->
<g id="node30" class="node">
<title>29</title>
<path fill="#eff5b0" stroke="#000000" d="M1253.7272,-1099.2C1253.7272,-1099.2 1071.7572,-1099.2 1071.7572,-1099.2 1065.7572,-1099.2 1059.7572,-1093.2 1059.7572,-1087.2 1059.7572,-1087.2 1059.7572,-1019.2 1059.7572,-1019.2 1059.7572,-1013.2 1065.7572,-1007.2 1071.7572,-1007.2 1071.7572,-1007.2 1253.7272,-1007.2 1253.7272,-1007.2 1259.7272,-1007.2 1265.7272,-1013.2 1265.7272,-1019.2 1265.7272,-1019.2 1265.7272,-1087.2 1265.7272,-1087.2 1265.7272,-1093.2 1259.7272,-1099.2 1253.7272,-1099.2"/>
<text text-anchor="middle" x="1162.7422" y="-1082.6" font-family="Helvetica,sans-Serif" font-size="14.00" fill="#000000">age &lt;= 30.5</text>
<text text-anchor="middle" x="1162.7422" y="-1065.8" font-family="Helvetica,sans-Serif" font-size="14.00" fill="#000000">gini = 0.571</text>
<text text-anchor="middle" x="1162.7422" y="-1049" font-family="Helvetica,sans-Serif" font-size="14.00" fill="#000000">samples = 7</text>
<text text-anchor="middle" x="1162.7422" y="-1032.2" font-family="Helvetica,sans-Serif" font-size="14.00" fill="#000000">value = [0, 4, 1, 0, 0, 2, 0, 0, 0]</text>
<text text-anchor="middle" x="1162.7422" y="-1015.4" font-family="Helvetica,sans-Serif" font-size="14.00" fill="#000000">class = Classical</text>
</g>
<!-- 3&#45;&gt;29 -->
<g id="edge29" class="edge">
<title>3-&gt;29</title>
<path fill="none" stroke="#000000" d="M1162.7422,-1134.9891C1162.7422,-1126.7417 1162.7422,-1118.0661 1162.7422,-1109.5724"/>
<polygon fill="#000000" stroke="#000000" points="1166.2423,-1109.3431 1162.7422,-1099.3431 1159.2423,-1109.3431 1166.2423,-1109.3431"/>
</g>
<!-- 5 -->
<g id="node6" class="node">
<title>5</title>
<path fill="#ffffff" stroke="#000000" d="M807.7272,-971.2C807.7272,-971.2 625.7572,-971.2 625.7572,-971.2 619.7572,-971.2 613.7572,-965.2 613.7572,-959.2 613.7572,-959.2 613.7572,-891.2 613.7572,-891.2 613.7572,-885.2 619.7572,-879.2 625.7572,-879.2 625.7572,-879.2 807.7272,-879.2 807.7272,-879.2 813.7272,-879.2 819.7272,-885.2 819.7272,-891.2 819.7272,-891.2 819.7272,-959.2 819.7272,-959.2 819.7272,-965.2 813.7272,-971.2 807.7272,-971.2"/>
<text text-anchor="middle" x="716.7422" y="-954.6" font-family="Helvetica,sans-Serif" font-size="14.00" fill="#000000">age &lt;= 27.0</text>
<text text-anchor="middle" x="716.7422" y="-937.8" font-family="Helvetica,sans-Serif" font-size="14.00" fill="#000000">gini = 0.837</text>
<text text-anchor="middle" x="716.7422" y="-921" font-family="Helvetica,sans-Serif" font-size="14.00" fill="#000000">samples = 19</text>
<text text-anchor="middle" x="716.7422" y="-904.2" font-family="Helvetica,sans-Serif" font-size="14.00" fill="#000000">value = [4, 4, 1, 1, 2, 4, 0, 2, 1]</text>
<text text-anchor="middle" x="716.7422" y="-887.4" font-family="Helvetica,sans-Serif" font-size="14.00" fill="#000000">class = Acoustic</text>
</g>
<!-- 4&#45;&gt;5 -->
<g id="edge5" class="edge">
<title>4-&gt;5</title>
<path fill="none" stroke="#000000" d="M859.5491,-1007.1699C842.217,-997.2214 823.7866,-986.6425 806.1273,-976.5062"/>
<polygon fill="#000000" stroke="#000000" points="807.388,-973.1943 796.9728,-971.2516 803.9033,-979.2653 807.388,-973.1943"/>
</g>
<!-- 28 -->
<g id="node29" class="node">
<title>28</title>
<path fill="#9cebf2" stroke="#000000" d="M1030.7272,-962.9003C1030.7272,-962.9003 848.7572,-962.9003 848.7572,-962.9003 842.7572,-962.9003 836.7572,-956.9003 836.7572,-950.9003 836.7572,-950.9003 836.7572,-899.4997 836.7572,-899.4997 836.7572,-893.4997 842.7572,-887.4997 848.7572,-887.4997 848.7572,-887.4997 1030.7272,-887.4997 1030.7272,-887.4997 1036.7272,-887.4997 1042.7272,-893.4997 1042.7272,-899.4997 1042.7272,-899.4997 1042.7272,-950.9003 1042.7272,-950.9003 1042.7272,-956.9003 1036.7272,-962.9003 1030.7272,-962.9003"/>
<text text-anchor="middle" x="939.7422" y="-946.2" font-family="Helvetica,sans-Serif" font-size="14.00" fill="#000000">gini = 0.444</text>
<text text-anchor="middle" x="939.7422" y="-929.4" font-family="Helvetica,sans-Serif" font-size="14.00" fill="#000000">samples = 3</text>
<text text-anchor="middle" x="939.7422" y="-912.6" font-family="Helvetica,sans-Serif" font-size="14.00" fill="#000000">value = [0, 0, 0, 0, 2, 1, 0, 0, 0]</text>
<text text-anchor="middle" x="939.7422" y="-895.8" font-family="Helvetica,sans-Serif" font-size="14.00" fill="#000000">class = HipHop</text>
</g>
<!-- 4&#45;&gt;28 -->
<g id="edge28" class="edge">
<title>4-&gt;28</title>
<path fill="none" stroke="#000000" d="M939.7422,-1006.9891C939.7422,-996.0272 939.7422,-984.309 939.7422,-973.2667"/>
<polygon fill="#000000" stroke="#000000" points="943.2423,-972.9335 939.7422,-962.9335 936.2423,-972.9335 943.2423,-972.9335"/>
</g>
<!-- 6 -->
<g id="node7" class="node">
<title>6</title>
<path fill="#ffffff" stroke="#000000" d="M765.7272,-843.2C765.7272,-843.2 583.7572,-843.2 583.7572,-843.2 577.7572,-843.2 571.7572,-837.2 571.7572,-831.2 571.7572,-831.2 571.7572,-763.2 571.7572,-763.2 571.7572,-757.2 577.7572,-751.2 583.7572,-751.2 583.7572,-751.2 765.7272,-751.2 765.7272,-751.2 771.7272,-751.2 777.7272,-757.2 777.7272,-763.2 777.7272,-763.2 777.7272,-831.2 777.7272,-831.2 777.7272,-837.2 771.7272,-843.2 765.7272,-843.2"/>
<text text-anchor="middle" x="674.7422" y="-826.6" font-family="Helvetica,sans-Serif" font-size="14.00" fill="#000000">age &lt;= 24.5</text>
<text text-anchor="middle" x="674.7422" y="-809.8" font-family="Helvetica,sans-Serif" font-size="14.00" fill="#000000">gini = 0.812</text>
<text text-anchor="middle" x="674.7422" y="-793" font-family="Helvetica,sans-Serif" font-size="14.00" fill="#000000">samples = 16</text>
<text text-anchor="middle" x="674.7422" y="-776.2" font-family="Helvetica,sans-Serif" font-size="14.00" fill="#000000">value = [3, 4, 1, 1, 2, 4, 0, 0, 1]</text>
<text text-anchor="middle" x="674.7422" y="-759.4" font-family="Helvetica,sans-Serif" font-size="14.00" fill="#000000">class = Classical</text>
</g>
<!-- 5&#45;&gt;6 -->
<g id="edge6" class="edge">
<title>5-&gt;6</title>
<path fill="none" stroke="#000000" d="M701.5792,-878.9891C698.8136,-870.5604 695.9012,-861.6846 693.0557,-853.0127"/>
<polygon fill="#000000" stroke="#000000" points="696.3262,-851.7535 689.8829,-843.3431 689.6751,-853.9359 696.3262,-851.7535"/>
</g>
<!-- 27 -->
<g id="node28" class="node">
<title>27</title>
<path fill="#f29ceb" stroke="#000000" d="M988.7272,-834.9003C988.7272,-834.9003 806.7572,-834.9003 806.7572,-834.9003 800.7572,-834.9003 794.7572,-828.9003 794.7572,-822.9003 794.7572,-822.9003 794.7572,-771.4997 794.7572,-771.4997 794.7572,-765.4997 800.7572,-759.4997 806.7572,-759.4997 806.7572,-759.4997 988.7272,-759.4997 988.7272,-759.4997 994.7272,-759.4997 1000.7272,-765.4997 1000.7272,-771.4997 1000.7272,-771.4997 1000.7272,-822.9003 1000.7272,-822.9003 1000.7272,-828.9003 994.7272,-834.9003 988.7272,-834.9003"/>
<text text-anchor="middle" x="897.7422" y="-818.2" font-family="Helvetica,sans-Serif" font-size="14.00" fill="#000000">gini = 0.444</text>
<text text-anchor="middle" x="897.7422" y="-801.4" font-family="Helvetica,sans-Serif" font-size="14.00" fill="#000000">samples = 3</text>
<text text-anchor="middle" x="897.7422" y="-784.6" font-family="Helvetica,sans-Serif" font-size="14.00" fill="#000000">value = [1, 0, 0, 0, 0, 0, 0, 2, 0]</text>
<text text-anchor="middle" x="897.7422" y="-767.8" font-family="Helvetica,sans-Serif" font-size="14.00" fill="#000000">class = Punk Rock</text>
</g>
<!-- 5&#45;&gt;27 -->
<g id="edge27" class="edge">
<title>5-&gt;27</title>
<path fill="none" stroke="#000000" d="M781.8316,-879.1699C799.5124,-866.6664 818.6012,-853.1671 836.0859,-840.8023"/>
<polygon fill="#000000" stroke="#000000" points="838.3834,-843.4643 844.5272,-834.8327 834.3417,-837.749 838.3834,-843.4643"/>
</g>
<!-- 7 -->
<g id="node8" class="node">
<title>7</title>
<path fill="#ffffff" stroke="#000000" d="M681.7272,-715.2C681.7272,-715.2 499.7572,-715.2 499.7572,-715.2 493.7572,-715.2 487.7572,-709.2 487.7572,-703.2 487.7572,-703.2 487.7572,-635.2 487.7572,-635.2 487.7572,-629.2 493.7572,-623.2 499.7572,-623.2 499.7572,-623.2 681.7272,-623.2 681.7272,-623.2 687.7272,-623.2 693.7272,-629.2 693.7272,-635.2 693.7272,-635.2 693.7272,-703.2 693.7272,-703.2 693.7272,-709.2 687.7272,-715.2 681.7272,-715.2"/>
<text text-anchor="middle" x="590.7422" y="-698.6" font-family="Helvetica,sans-Serif" font-size="14.00" fill="#000000">age &lt;= 20.5</text>
<text text-anchor="middle" x="590.7422" y="-681.8" font-family="Helvetica,sans-Serif" font-size="14.00" fill="#000000">gini = 0.828</text>
<text text-anchor="middle" x="590.7422" y="-665" font-family="Helvetica,sans-Serif" font-size="14.00" fill="#000000">samples = 13</text>
<text text-anchor="middle" x="590.7422" y="-648.2" font-family="Helvetica,sans-Serif" font-size="14.00" fill="#000000">value = [3, 2, 1, 1, 2, 3, 0, 0, 1]</text>
<text text-anchor="middle" x="590.7422" y="-631.4" font-family="Helvetica,sans-Serif" font-size="14.00" fill="#000000">class = Acoustic</text>
</g>
<!-- 6&#45;&gt;7 -->
<g id="edge7" class="edge">
<title>6-&gt;7</title>
<path fill="none" stroke="#000000" d="M644.4163,-750.9891C638.6471,-742.1979 632.5586,-732.9202 626.6357,-723.8949"/>
<polygon fill="#000000" stroke="#000000" points="629.4364,-721.7833 621.0236,-715.3431 623.584,-725.6239 629.4364,-721.7833"/>
</g>
<!-- 24 -->
<g id="node25" class="node">
<title>24</title>
<path fill="#ebf29c" stroke="#000000" d="M904.7272,-715.2C904.7272,-715.2 722.7572,-715.2 722.7572,-715.2 716.7572,-715.2 710.7572,-709.2 710.7572,-703.2 710.7572,-703.2 710.7572,-635.2 710.7572,-635.2 710.7572,-629.2 716.7572,-623.2 722.7572,-623.2 722.7572,-623.2 904.7272,-623.2 904.7272,-623.2 910.7272,-623.2 916.7272,-629.2 916.7272,-635.2 916.7272,-635.2 916.7272,-703.2 916.7272,-703.2 916.7272,-709.2 910.7272,-715.2 904.7272,-715.2"/>
<text text-anchor="middle" x="813.7422" y="-698.6" font-family="Helvetica,sans-Serif" font-size="14.00" fill="#000000">age &lt;= 25.5</text>
<text text-anchor="middle" x="813.7422" y="-681.8" font-family="Helvetica,sans-Serif" font-size="14.00" fill="#000000">gini = 0.444</text>
<text text-anchor="middle" x="813.7422" y="-665" font-family="Helvetica,sans-Serif" font-size="14.00" fill="#000000">samples = 3</text>
<text text-anchor="middle" x="813.7422" y="-648.2" font-family="Helvetica,sans-Serif" font-size="14.00" fill="#000000">value = [0, 2, 0, 0, 0, 1, 0, 0, 0]</text>
<text text-anchor="middle" x="813.7422" y="-631.4" font-family="Helvetica,sans-Serif" font-size="14.00" fill="#000000">class = Classical</text>
</g>
<!-- 6&#45;&gt;24 -->
<g id="edge24" class="edge">
<title>6-&gt;24</title>
<path fill="none" stroke="#000000" d="M724.9244,-750.9891C735.0616,-741.6541 745.7944,-731.7706 756.1624,-722.2231"/>
<polygon fill="#000000" stroke="#000000" points="758.6484,-724.6918 763.6337,-715.3431 753.9066,-719.5425 758.6484,-724.6918"/>
</g>
<!-- 8 -->
<g id="node9" class="node">
<title>8</title>
<path fill="#f5f8ce" stroke="#000000" d="M458.7272,-587.2C458.7272,-587.2 276.7572,-587.2 276.7572,-587.2 270.7572,-587.2 264.7572,-581.2 264.7572,-575.2 264.7572,-575.2 264.7572,-507.2 264.7572,-507.2 264.7572,-501.2 270.7572,-495.2 276.7572,-495.2 276.7572,-495.2 458.7272,-495.2 458.7272,-495.2 464.7272,-495.2 470.7272,-501.2 470.7272,-507.2 470.7272,-507.2 470.7272,-575.2 470.7272,-575.2 470.7272,-581.2 464.7272,-587.2 458.7272,-587.2"/>
<text text-anchor="middle" x="367.7422" y="-570.6" font-family="Helvetica,sans-Serif" font-size="14.00" fill="#000000">gender &lt;= 0.5</text>
<text text-anchor="middle" x="367.7422" y="-553.8" font-family="Helvetica,sans-Serif" font-size="14.00" fill="#000000">gini = 0.72</text>
<text text-anchor="middle" x="367.7422" y="-537" font-family="Helvetica,sans-Serif" font-size="14.00" fill="#000000">samples = 5</text>
<text text-anchor="middle" x="367.7422" y="-520.2" font-family="Helvetica,sans-Serif" font-size="14.00" fill="#000000">value = [1, 2, 0, 1, 1, 0, 0, 0, 0]</text>
<text text-anchor="middle" x="367.7422" y="-503.4" font-family="Helvetica,sans-Serif" font-size="14.00" fill="#000000">class = Classical</text>
</g>
<!-- 7&#45;&gt;8 -->
<g id="edge8" class="edge">
<title>7-&gt;8</title>
<path fill="none" stroke="#000000" d="M510.5491,-623.1699C493.217,-613.2214 474.7866,-602.6425 457.1273,-592.5062"/>
<polygon fill="#000000" stroke="#000000" points="458.388,-589.1943 447.9728,-587.2516 454.9033,-595.2653 458.388,-589.1943"/>
</g>
<!-- 15 -->
<g id="node16" class="node">
<title>15</title>
<path fill="#dee5fb" stroke="#000000" d="M681.7272,-587.2C681.7272,-587.2 499.7572,-587.2 499.7572,-587.2 493.7572,-587.2 487.7572,-581.2 487.7572,-575.2 487.7572,-575.2 487.7572,-507.2 487.7572,-507.2 487.7572,-501.2 493.7572,-495.2 499.7572,-495.2 499.7572,-495.2 681.7272,-495.2 681.7272,-495.2 687.7272,-495.2 693.7272,-501.2 693.7272,-507.2 693.7272,-507.2 693.7272,-575.2 693.7272,-575.2 693.7272,-581.2 687.7272,-587.2 681.7272,-587.2"/>
<text text-anchor="middle" x="590.7422" y="-570.6" font-family="Helvetica,sans-Serif" font-size="14.00" fill="#000000">age &lt;= 21.5</text>
<text text-anchor="middle" x="590.7422" y="-553.8" font-family="Helvetica,sans-Serif" font-size="14.00" fill="#000000">gini = 0.75</text>
<text text-anchor="middle" x="590.7422" y="-537" font-family="Helvetica,sans-Serif" font-size="14.00" fill="#000000">samples = 8</text>
<text text-anchor="middle" x="590.7422" y="-520.2" font-family="Helvetica,sans-Serif" font-size="14.00" fill="#000000">value = [2, 0, 1, 0, 1, 3, 0, 0, 1]</text>
<text text-anchor="middle" x="590.7422" y="-503.4" font-family="Helvetica,sans-Serif" font-size="14.00" fill="#000000">class = Indie Rock</text>
</g>
<!-- 7&#45;&gt;15 -->
<g id="edge15" class="edge">
<title>7-&gt;15</title>
<path fill="none" stroke="#000000" d="M590.7422,-622.9891C590.7422,-614.7417 590.7422,-606.0661 590.7422,-597.5724"/>
<polygon fill="#000000" stroke="#000000" points="594.2423,-597.3431 590.7422,-587.3431 587.2423,-597.3431 594.2423,-597.3431"/>
</g>
<!-- 9 -->
<g id="node10" class="node">
<title>9</title>
<path fill="#ffffff" stroke="#000000" d="M235.7272,-459.2C235.7272,-459.2 53.7572,-459.2 53.7572,-459.2 47.7572,-459.2 41.7572,-453.2 41.7572,-447.2 41.7572,-447.2 41.7572,-379.2 41.7572,-379.2 41.7572,-373.2 47.7572,-367.2 53.7572,-367.2 53.7572,-367.2 235.7272,-367.2 235.7272,-367.2 241.7272,-367.2 247.7272,-373.2 247.7272,-379.2 247.7272,-379.2 247.7272,-447.2 247.7272,-447.2 247.7272,-453.2 241.7272,-459.2 235.7272,-459.2"/>
<text text-anchor="middle" x="144.7422" y="-442.6" font-family="Helvetica,sans-Serif" font-size="14.00" fill="#000000">age &lt;= 18.5</text>
<text text-anchor="middle" x="144.7422" y="-425.8" font-family="Helvetica,sans-Serif" font-size="14.00" fill="#000000">gini = 0.667</text>
<text text-anchor="middle" x="144.7422" y="-409" font-family="Helvetica,sans-Serif" font-size="14.00" fill="#000000">samples = 3</text>
<text text-anchor="middle" x="144.7422" y="-392.2" font-family="Helvetica,sans-Serif" font-size="14.00" fill="#000000">value = [1, 0, 0, 1, 1, 0, 0, 0, 0]</text>
<text text-anchor="middle" x="144.7422" y="-375.4" font-family="Helvetica,sans-Serif" font-size="14.00" fill="#000000">class = Acoustic</text>
</g>
<!-- 8&#45;&gt;9 -->
<g id="edge9" class="edge">
<title>8-&gt;9</title>
<path fill="none" stroke="#000000" d="M287.5491,-495.1699C270.217,-485.2214 251.7866,-474.6425 234.1273,-464.5062"/>
<polygon fill="#000000" stroke="#000000" points="235.388,-461.1943 224.9728,-459.2516 231.9033,-467.2653 235.388,-461.1943"/>
</g>
<!-- 14 -->
<g id="node15" class="node">
<title>14</title>
<path fill="#d7e539" stroke="#000000" d="M458.7272,-450.9003C458.7272,-450.9003 276.7572,-450.9003 276.7572,-450.9003 270.7572,-450.9003 264.7572,-444.9003 264.7572,-438.9003 264.7572,-438.9003 264.7572,-387.4997 264.7572,-387.4997 264.7572,-381.4997 270.7572,-375.4997 276.7572,-375.4997 276.7572,-375.4997 458.7272,-375.4997 458.7272,-375.4997 464.7272,-375.4997 470.7272,-381.4997 470.7272,-387.4997 470.7272,-387.4997 470.7272,-438.9003 470.7272,-438.9003 470.7272,-444.9003 464.7272,-450.9003 458.7272,-450.9003"/>
<text text-anchor="middle" x="367.7422" y="-434.2" font-family="Helvetica,sans-Serif" font-size="14.00" fill="#000000">gini = 0.0</text>
<text text-anchor="middle" x="367.7422" y="-417.4" font-family="Helvetica,sans-Serif" font-size="14.00" fill="#000000">samples = 2</text>
<text text-anchor="middle" x="367.7422" y="-400.6" font-family="Helvetica,sans-Serif" font-size="14.00" fill="#000000">value = [0, 2, 0, 0, 0, 0, 0, 0, 0]</text>
<text text-anchor="middle" x="367.7422" y="-383.8" font-family="Helvetica,sans-Serif" font-size="14.00" fill="#000000">class = Classical</text>
</g>
<!-- 8&#45;&gt;14 -->
<g id="edge14" class="edge">
<title>8-&gt;14</title>
<path fill="none" stroke="#000000" d="M367.7422,-494.9891C367.7422,-484.0272 367.7422,-472.309 367.7422,-461.2667"/>
<polygon fill="#000000" stroke="#000000" points="371.2423,-460.9335 367.7422,-450.9335 364.2423,-460.9335 371.2423,-460.9335"/>
</g>
<!-- 10 -->
<g id="node11" class="node">
<title>10</title>
<path fill="#e58139" stroke="#000000" d="M193.7272,-322.9003C193.7272,-322.9003 11.7572,-322.9003 11.7572,-322.9003 5.7572,-322.9003 -.2428,-316.9003 -.2428,-310.9003 -.2428,-310.9003 -.2428,-259.4997 -.2428,-259.4997 -.2428,-253.4997 5.7572,-247.4997 11.7572,-247.4997 11.7572,-247.4997 193.7272,-247.4997 193.7272,-247.4997 199.7272,-247.4997 205.7272,-253.4997 205.7272,-259.4997 205.7272,-259.4997 205.7272,-310.9003 205.7272,-310.9003 205.7272,-316.9003 199.7272,-322.9003 193.7272,-322.9003"/>
<text text-anchor="middle" x="102.7422" y="-306.2" font-family="Helvetica,sans-Serif" font-size="14.00" fill="#000000">gini = 0.0</text>
<text text-anchor="middle" x="102.7422" y="-289.4" font-family="Helvetica,sans-Serif" font-size="14.00" fill="#000000">samples = 1</text>
<text text-anchor="middle" x="102.7422" y="-272.6" font-family="Helvetica,sans-Serif" font-size="14.00" fill="#000000">value = [1, 0, 0, 0, 0, 0, 0, 0, 0]</text>
<text text-anchor="middle" x="102.7422" y="-255.8" font-family="Helvetica,sans-Serif" font-size="14.00" fill="#000000">class = Acoustic</text>
</g>
<!-- 9&#45;&gt;10 -->
<g id="edge10" class="edge">
<title>9-&gt;10</title>
<path fill="none" stroke="#000000" d="M129.5792,-366.9891C125.9082,-355.8012 121.9787,-343.8255 118.2902,-332.5845"/>
<polygon fill="#000000" stroke="#000000" points="121.5668,-331.3439 115.1235,-322.9335 114.9157,-333.5263 121.5668,-331.3439"/>
</g>
<!-- 11 -->
<g id="node12" class="node">
<title>11</title>
<path fill="#ffffff" stroke="#000000" d="M416.7272,-331.2C416.7272,-331.2 234.7572,-331.2 234.7572,-331.2 228.7572,-331.2 222.7572,-325.2 222.7572,-319.2 222.7572,-319.2 222.7572,-251.2 222.7572,-251.2 222.7572,-245.2 228.7572,-239.2 234.7572,-239.2 234.7572,-239.2 416.7272,-239.2 416.7272,-239.2 422.7272,-239.2 428.7272,-245.2 428.7272,-251.2 428.7272,-251.2 428.7272,-319.2 428.7272,-319.2 428.7272,-325.2 422.7272,-331.2 416.7272,-331.2"/>
<text text-anchor="middle" x="325.7422" y="-314.6" font-family="Helvetica,sans-Serif" font-size="14.00" fill="#000000">age &lt;= 19.5</text>
<text text-anchor="middle" x="325.7422" y="-297.8" font-family="Helvetica,sans-Serif" font-size="14.00" fill="#000000">gini = 0.5</text>
<text text-anchor="middle" x="325.7422" y="-281" font-family="Helvetica,sans-Serif" font-size="14.00" fill="#000000">samples = 2</text>
<text text-anchor="middle" x="325.7422" y="-264.2" font-family="Helvetica,sans-Serif" font-size="14.00" fill="#000000">value = [0, 0, 0, 1, 1, 0, 0, 0, 0]</text>
<text text-anchor="middle" x="325.7422" y="-247.4" font-family="Helvetica,sans-Serif" font-size="14.00" fill="#000000">class = EDM</text>
</g>
<!-- 9&#45;&gt;11 -->
<g id="edge11" class="edge">
<title>9-&gt;11</title>
<path fill="none" stroke="#000000" d="M209.8316,-367.1699C223.6413,-357.404 238.31,-347.0305 252.4024,-337.0646"/>
<polygon fill="#000000" stroke="#000000" points="254.4785,-339.8832 260.6223,-331.2516 250.4367,-334.1679 254.4785,-339.8832"/>
</g>
<!-- 12 -->
<g id="node13" class="node">
<title>12</title>
<path fill="#39d7e5" stroke="#000000" d="M304.7272,-194.9003C304.7272,-194.9003 122.7572,-194.9003 122.7572,-194.9003 116.7572,-194.9003 110.7572,-188.9003 110.7572,-182.9003 110.7572,-182.9003 110.7572,-131.4997 110.7572,-131.4997 110.7572,-125.4997 116.7572,-119.4997 122.7572,-119.4997 122.7572,-119.4997 304.7272,-119.4997 304.7272,-119.4997 310.7272,-119.4997 316.7272,-125.4997 316.7272,-131.4997 316.7272,-131.4997 316.7272,-182.9003 316.7272,-182.9003 316.7272,-188.9003 310.7272,-194.9003 304.7272,-194.9003"/>
<text text-anchor="middle" x="213.7422" y="-178.2" font-family="Helvetica,sans-Serif" font-size="14.00" fill="#000000">gini = 0.0</text>
<text text-anchor="middle" x="213.7422" y="-161.4" font-family="Helvetica,sans-Serif" font-size="14.00" fill="#000000">samples = 1</text>
<text text-anchor="middle" x="213.7422" y="-144.6" font-family="Helvetica,sans-Serif" font-size="14.00" fill="#000000">value = [0, 0, 0, 0, 1, 0, 0, 0, 0]</text>
<text text-anchor="middle" x="213.7422" y="-127.8" font-family="Helvetica,sans-Serif" font-size="14.00" fill="#000000">class = HipHop</text>
</g>
<!-- 11&#45;&gt;12 -->
<g id="edge12" class="edge">
<title>11-&gt;12</title>
<path fill="none" stroke="#000000" d="M285.3076,-238.9891C274.925,-227.1231 263.7668,-214.371 253.4227,-202.5492"/>
<polygon fill="#000000" stroke="#000000" points="255.9781,-200.1545 246.759,-194.9335 250.7101,-204.7641 255.9781,-200.1545"/>
</g>
<!-- 13 -->
<g id="node14" class="node">
<title>13</title>
<path fill="#39e581" stroke="#000000" d="M527.7272,-194.9003C527.7272,-194.9003 345.7572,-194.9003 345.7572,-194.9003 339.7572,-194.9003 333.7572,-188.9003 333.7572,-182.9003 333.7572,-182.9003 333.7572,-131.4997 333.7572,-131.4997 333.7572,-125.4997 339.7572,-119.4997 345.7572,-119.4997 345.7572,-119.4997 527.7272,-119.4997 527.7272,-119.4997 533.7272,-119.4997 539.7272,-125.4997 539.7272,-131.4997 539.7272,-131.4997 539.7272,-182.9003 539.7272,-182.9003 539.7272,-188.9003 533.7272,-194.9003 527.7272,-194.9003"/>
<text text-anchor="middle" x="436.7422" y="-178.2" font-family="Helvetica,sans-Serif" font-size="14.00" fill="#000000">gini = 0.0</text>
<text text-anchor="middle" x="436.7422" y="-161.4" font-family="Helvetica,sans-Serif" font-size="14.00" fill="#000000">samples = 1</text>
<text text-anchor="middle" x="436.7422" y="-144.6" font-family="Helvetica,sans-Serif" font-size="14.00" fill="#000000">value = [0, 0, 0, 1, 0, 0, 0, 0, 0]</text>
<text text-anchor="middle" x="436.7422" y="-127.8" font-family="Helvetica,sans-Serif" font-size="14.00" fill="#000000">class = EDM</text>
</g>
<!-- 11&#45;&gt;13 -->
<g id="edge13" class="edge">
<title>11-&gt;13</title>
<path fill="none" stroke="#000000" d="M365.8157,-238.9891C376.1057,-227.1231 387.1642,-214.371 397.416,-202.5492"/>
<polygon fill="#000000" stroke="#000000" points="400.1128,-204.7815 404.0202,-194.9335 394.8244,-200.1954 400.1128,-204.7815"/>
</g>
<!-- 16 -->
<g id="node17" class="node">
<title>16</title>
<path fill="#3964e5" stroke="#000000" d="M681.7272,-450.9003C681.7272,-450.9003 499.7572,-450.9003 499.7572,-450.9003 493.7572,-450.9003 487.7572,-444.9003 487.7572,-438.9003 487.7572,-438.9003 487.7572,-387.4997 487.7572,-387.4997 487.7572,-381.4997 493.7572,-375.4997 499.7572,-375.4997 499.7572,-375.4997 681.7272,-375.4997 681.7272,-375.4997 687.7272,-375.4997 693.7272,-381.4997 693.7272,-387.4997 693.7272,-387.4997 693.7272,-438.9003 693.7272,-438.9003 693.7272,-444.9003 687.7272,-450.9003 681.7272,-450.9003"/>
<text text-anchor="middle" x="590.7422" y="-434.2" font-family="Helvetica,sans-Serif" font-size="14.00" fill="#000000">gini = 0.0</text>
<text text-anchor="middle" x="590.7422" y="-417.4" font-family="Helvetica,sans-Serif" font-size="14.00" fill="#000000">samples = 3</text>
<text text-anchor="middle" x="590.7422" y="-400.6" font-family="Helvetica,sans-Serif" font-size="14.00" fill="#000000">value = [0, 0, 0, 0, 0, 3, 0, 0, 0]</text>
<text text-anchor="middle" x="590.7422" y="-383.8" font-family="Helvetica,sans-Serif" font-size="14.00" fill="#000000">class = Indie Rock</text>
</g>
<!-- 15&#45;&gt;16 -->
<g id="edge16" class="edge">
<title>15-&gt;16</title>
<path fill="none" stroke="#000000" d="M590.7422,-494.9891C590.7422,-484.0272 590.7422,-472.309 590.7422,-461.2667"/>
<polygon fill="#000000" stroke="#000000" points="594.2423,-460.9335 590.7422,-450.9335 587.2423,-460.9335 594.2423,-460.9335"/>
</g>
<!-- 17 -->
<g id="node18" class="node">
<title>17</title>
<path fill="#f8e0ce" stroke="#000000" d="M904.7272,-459.2C904.7272,-459.2 722.7572,-459.2 722.7572,-459.2 716.7572,-459.2 710.7572,-453.2 710.7572,-447.2 710.7572,-447.2 710.7572,-379.2 710.7572,-379.2 710.7572,-373.2 716.7572,-367.2 722.7572,-367.2 722.7572,-367.2 904.7272,-367.2 904.7272,-367.2 910.7272,-367.2 916.7272,-373.2 916.7272,-379.2 916.7272,-379.2 916.7272,-447.2 916.7272,-447.2 916.7272,-453.2 910.7272,-459.2 904.7272,-459.2"/>
<text text-anchor="middle" x="813.7422" y="-442.6" font-family="Helvetica,sans-Serif" font-size="14.00" fill="#000000">age &lt;= 22.5</text>
<text text-anchor="middle" x="813.7422" y="-425.8" font-family="Helvetica,sans-Serif" font-size="14.00" fill="#000000">gini = 0.72</text>
<text text-anchor="middle" x="813.7422" y="-409" font-family="Helvetica,sans-Serif" font-size="14.00" fill="#000000">samples = 5</text>
<text text-anchor="middle" x="813.7422" y="-392.2" font-family="Helvetica,sans-Serif" font-size="14.00" fill="#000000">value = [2, 0, 1, 0, 1, 0, 0, 0, 1]</text>
<text text-anchor="middle" x="813.7422" y="-375.4" font-family="Helvetica,sans-Serif" font-size="14.00" fill="#000000">class = Acoustic</text>
</g>
<!-- 15&#45;&gt;17 -->
<g id="edge17" class="edge">
<title>15-&gt;17</title>
<path fill="none" stroke="#000000" d="M670.9353,-495.1699C688.2674,-485.2214 706.6978,-474.6425 724.3571,-464.5062"/>
<polygon fill="#000000" stroke="#000000" points="726.5811,-467.2653 733.5116,-459.2516 723.0964,-461.1943 726.5811,-467.2653"/>
</g>
<!-- 18 -->
<g id="node19" class="node">
<title>18</title>
<path fill="#64e539" stroke="#000000" d="M723.7272,-322.9003C723.7272,-322.9003 541.7572,-322.9003 541.7572,-322.9003 535.7572,-322.9003 529.7572,-316.9003 529.7572,-310.9003 529.7572,-310.9003 529.7572,-259.4997 529.7572,-259.4997 529.7572,-253.4997 535.7572,-247.4997 541.7572,-247.4997 541.7572,-247.4997 723.7272,-247.4997 723.7272,-247.4997 729.7272,-247.4997 735.7272,-253.4997 735.7272,-259.4997 735.7272,-259.4997 735.7272,-310.9003 735.7272,-310.9003 735.7272,-316.9003 729.7272,-322.9003 723.7272,-322.9003"/>
<text text-anchor="middle" x="632.7422" y="-306.2" font-family="Helvetica,sans-Serif" font-size="14.00" fill="#000000">gini = 0.0</text>
<text text-anchor="middle" x="632.7422" y="-289.4" font-family="Helvetica,sans-Serif" font-size="14.00" fill="#000000">samples = 1</text>
<text text-anchor="middle" x="632.7422" y="-272.6" font-family="Helvetica,sans-Serif" font-size="14.00" fill="#000000">value = [0, 0, 1, 0, 0, 0, 0, 0, 0]</text>
<text text-anchor="middle" x="632.7422" y="-255.8" font-family="Helvetica,sans-Serif" font-size="14.00" fill="#000000">class = Dance</text>
</g>
<!-- 17&#45;&gt;18 -->
<g id="edge18" class="edge">
<title>17-&gt;18</title>
<path fill="none" stroke="#000000" d="M748.6528,-367.1699C730.972,-354.6664 711.8832,-341.1671 694.3985,-328.8023"/>
<polygon fill="#000000" stroke="#000000" points="696.1427,-325.749 685.9572,-322.8327 692.101,-331.4643 696.1427,-325.749"/>
</g>
<!-- 19 -->
<g id="node20" class="node">
<title>19</title>
<path fill="#f6d5bd" stroke="#000000" d="M946.7272,-331.2C946.7272,-331.2 764.7572,-331.2 764.7572,-331.2 758.7572,-331.2 752.7572,-325.2 752.7572,-319.2 752.7572,-319.2 752.7572,-251.2 752.7572,-251.2 752.7572,-245.2 758.7572,-239.2 764.7572,-239.2 764.7572,-239.2 946.7272,-239.2 946.7272,-239.2 952.7272,-239.2 958.7272,-245.2 958.7272,-251.2 958.7272,-251.2 958.7272,-319.2 958.7272,-319.2 958.7272,-325.2 952.7272,-331.2 946.7272,-331.2"/>
<text text-anchor="middle" x="855.7422" y="-314.6" font-family="Helvetica,sans-Serif" font-size="14.00" fill="#000000">age &lt;= 23.5</text>
<text text-anchor="middle" x="855.7422" y="-297.8" font-family="Helvetica,sans-Serif" font-size="14.00" fill="#000000">gini = 0.625</text>
<text text-anchor="middle" x="855.7422" y="-281" font-family="Helvetica,sans-Serif" font-size="14.00" fill="#000000">samples = 4</text>
<text text-anchor="middle" x="855.7422" y="-264.2" font-family="Helvetica,sans-Serif" font-size="14.00" fill="#000000">value = [2, 0, 0, 0, 1, 0, 0, 0, 1]</text>
<text text-anchor="middle" x="855.7422" y="-247.4" font-family="Helvetica,sans-Serif" font-size="14.00" fill="#000000">class = Acoustic</text>
</g>
<!-- 17&#45;&gt;19 -->
<g id="edge19" class="edge">
<title>17-&gt;19</title>
<path fill="none" stroke="#000000" d="M828.9052,-366.9891C831.6708,-358.5604 834.5832,-349.6846 837.4287,-341.0127"/>
<polygon fill="#000000" stroke="#000000" points="840.8093,-341.9359 840.6015,-331.3431 834.1582,-339.7535 840.8093,-341.9359"/>
</g>
<!-- 20 -->
<g id="node21" class="node">
<title>20</title>
<path fill="#f2c09c" stroke="#000000" d="M806.7272,-203.2C806.7272,-203.2 624.7572,-203.2 624.7572,-203.2 618.7572,-203.2 612.7572,-197.2 612.7572,-191.2 612.7572,-191.2 612.7572,-123.2 612.7572,-123.2 612.7572,-117.2 618.7572,-111.2 624.7572,-111.2 624.7572,-111.2 806.7272,-111.2 806.7272,-111.2 812.7272,-111.2 818.7272,-117.2 818.7272,-123.2 818.7272,-123.2 818.7272,-191.2 818.7272,-191.2 818.7272,-197.2 812.7272,-203.2 806.7272,-203.2"/>
<text text-anchor="middle" x="715.7422" y="-186.6" font-family="Helvetica,sans-Serif" font-size="14.00" fill="#000000">gender &lt;= 0.5</text>
<text text-anchor="middle" x="715.7422" y="-169.8" font-family="Helvetica,sans-Serif" font-size="14.00" fill="#000000">gini = 0.444</text>
<text text-anchor="middle" x="715.7422" y="-153" font-family="Helvetica,sans-Serif" font-size="14.00" fill="#000000">samples = 3</text>
<text text-anchor="middle" x="715.7422" y="-136.2" font-family="Helvetica,sans-Serif" font-size="14.00" fill="#000000">value = [2, 0, 0, 0, 0, 0, 0, 0, 1]</text>
<text text-anchor="middle" x="715.7422" y="-119.4" font-family="Helvetica,sans-Serif" font-size="14.00" fill="#000000">class = Acoustic</text>
</g>
<!-- 19&#45;&gt;20 -->
<g id="edge20" class="edge">
<title>19-&gt;20</title>
<path fill="none" stroke="#000000" d="M805.199,-238.9891C794.9889,-229.6541 784.1788,-219.7706 773.7363,-210.2231"/>
<polygon fill="#000000" stroke="#000000" points="775.9532,-207.5077 766.2112,-203.3431 771.2298,-212.6739 775.9532,-207.5077"/>
</g>
<!-- 23 -->
<g id="node24" class="node">
<title>23</title>
<path fill="#39d7e5" stroke="#000000" d="M1029.7272,-194.9003C1029.7272,-194.9003 847.7572,-194.9003 847.7572,-194.9003 841.7572,-194.9003 835.7572,-188.9003 835.7572,-182.9003 835.7572,-182.9003 835.7572,-131.4997 835.7572,-131.4997 835.7572,-125.4997 841.7572,-119.4997 847.7572,-119.4997 847.7572,-119.4997 1029.7272,-119.4997 1029.7272,-119.4997 1035.7272,-119.4997 1041.7272,-125.4997 1041.7272,-131.4997 1041.7272,-131.4997 1041.7272,-182.9003 1041.7272,-182.9003 1041.7272,-188.9003 1035.7272,-194.9003 1029.7272,-194.9003"/>
<text text-anchor="middle" x="938.7422" y="-178.2" font-family="Helvetica,sans-Serif" font-size="14.00" fill="#000000">gini = 0.0</text>
<text text-anchor="middle" x="938.7422" y="-161.4" font-family="Helvetica,sans-Serif" font-size="14.00" fill="#000000">samples = 1</text>
<text text-anchor="middle" x="938.7422" y="-144.6" font-family="Helvetica,sans-Serif" font-size="14.00" fill="#000000">value = [0, 0, 0, 0, 1, 0, 0, 0, 0]</text>
<text text-anchor="middle" x="938.7422" y="-127.8" font-family="Helvetica,sans-Serif" font-size="14.00" fill="#000000">class = HipHop</text>
</g>
<!-- 19&#45;&gt;23 -->
<g id="edge23" class="edge">
<title>19-&gt;23</title>
<path fill="none" stroke="#000000" d="M885.7071,-238.9891C893.1816,-227.4622 901.1983,-215.099 908.6776,-203.5647"/>
<polygon fill="#000000" stroke="#000000" points="911.7703,-205.2282 914.2744,-194.9335 905.897,-201.4197 911.7703,-205.2282"/>
</g>
<!-- 21 -->
<g id="node22" class="node">
<title>21</title>
<path fill="#e58139" stroke="#000000" d="M694.7272,-75.3003C694.7272,-75.3003 512.7572,-75.3003 512.7572,-75.3003 506.7572,-75.3003 500.7572,-69.3003 500.7572,-63.3003 500.7572,-63.3003 500.7572,-11.8997 500.7572,-11.8997 500.7572,-5.8997 506.7572,.1003 512.7572,.1003 512.7572,.1003 694.7272,.1003 694.7272,.1003 700.7272,.1003 706.7272,-5.8997 706.7272,-11.8997 706.7272,-11.8997 706.7272,-63.3003 706.7272,-63.3003 706.7272,-69.3003 700.7272,-75.3003 694.7272,-75.3003"/>
<text text-anchor="middle" x="603.7422" y="-58.6" font-family="Helvetica,sans-Serif" font-size="14.00" fill="#000000">gini = 0.0</text>
<text text-anchor="middle" x="603.7422" y="-41.8" font-family="Helvetica,sans-Serif" font-size="14.00" fill="#000000">samples = 1</text>
<text text-anchor="middle" x="603.7422" y="-25" font-family="Helvetica,sans-Serif" font-size="14.00" fill="#000000">value = [1, 0, 0, 0, 0, 0, 0, 0, 0]</text>
<text text-anchor="middle" x="603.7422" y="-8.2" font-family="Helvetica,sans-Serif" font-size="14.00" fill="#000000">class = Acoustic</text>
</g>
<!-- 20&#45;&gt;21 -->
<g id="edge21" class="edge">
<title>20-&gt;21</title>
<path fill="none" stroke="#000000" d="M672.4401,-110.9595C663.6972,-101.6233 654.5184,-91.8217 645.8183,-82.5313"/>
<polygon fill="#000000" stroke="#000000" points="648.3513,-80.1156 638.9612,-75.2088 643.2418,-84.9004 648.3513,-80.1156"/>
</g>
<!-- 22 -->
<g id="node23" class="node">
<title>22</title>
<path fill="#ffffff" stroke="#000000" d="M917.7272,-75.3003C917.7272,-75.3003 735.7572,-75.3003 735.7572,-75.3003 729.7572,-75.3003 723.7572,-69.3003 723.7572,-63.3003 723.7572,-63.3003 723.7572,-11.8997 723.7572,-11.8997 723.7572,-5.8997 729.7572,.1003 735.7572,.1003 735.7572,.1003 917.7272,.1003 917.7272,.1003 923.7272,.1003 929.7272,-5.8997 929.7272,-11.8997 929.7272,-11.8997 929.7272,-63.3003 929.7272,-63.3003 929.7272,-69.3003 923.7272,-75.3003 917.7272,-75.3003"/>
<text text-anchor="middle" x="826.7422" y="-58.6" font-family="Helvetica,sans-Serif" font-size="14.00" fill="#000000">gini = 0.5</text>
<text text-anchor="middle" x="826.7422" y="-41.8" font-family="Helvetica,sans-Serif" font-size="14.00" fill="#000000">samples = 2</text>
<text text-anchor="middle" x="826.7422" y="-25" font-family="Helvetica,sans-Serif" font-size="14.00" fill="#000000">value = [1, 0, 0, 0, 0, 0, 0, 0, 1]</text>
<text text-anchor="middle" x="826.7422" y="-8.2" font-family="Helvetica,sans-Serif" font-size="14.00" fill="#000000">class = Acoustic</text>
</g>
<!-- 20&#45;&gt;22 -->
<g id="edge22" class="edge">
<title>20-&gt;22</title>
<path fill="none" stroke="#000000" d="M758.6577,-110.9595C767.2368,-101.7158 776.2393,-92.0157 784.7855,-82.8074"/>
<polygon fill="#000000" stroke="#000000" points="787.6004,-84.9195 791.8377,-75.2088 782.4696,-80.1576 787.6004,-84.9195"/>
</g>
<!-- 25 -->
<g id="node26" class="node">
<title>25</title>
<path fill="#d7e539" stroke="#000000" d="M904.7272,-578.9003C904.7272,-578.9003 722.7572,-578.9003 722.7572,-578.9003 716.7572,-578.9003 710.7572,-572.9003 710.7572,-566.9003 710.7572,-566.9003 710.7572,-515.4997 710.7572,-515.4997 710.7572,-509.4997 716.7572,-503.4997 722.7572,-503.4997 722.7572,-503.4997 904.7272,-503.4997 904.7272,-503.4997 910.7272,-503.4997 916.7272,-509.4997 916.7272,-515.4997 916.7272,-515.4997 916.7272,-566.9003 916.7272,-566.9003 916.7272,-572.9003 910.7272,-578.9003 904.7272,-578.9003"/>
<text text-anchor="middle" x="813.7422" y="-562.2" font-family="Helvetica,sans-Serif" font-size="14.00" fill="#000000">gini = 0.0</text>
<text text-anchor="middle" x="813.7422" y="-545.4" font-family="Helvetica,sans-Serif" font-size="14.00" fill="#000000">samples = 2</text>
<text text-anchor="middle" x="813.7422" y="-528.6" font-family="Helvetica,sans-Serif" font-size="14.00" fill="#000000">value = [0, 2, 0, 0, 0, 0, 0, 0, 0]</text>
<text text-anchor="middle" x="813.7422" y="-511.8" font-family="Helvetica,sans-Serif" font-size="14.00" fill="#000000">class = Classical</text>
</g>
<!-- 24&#45;&gt;25 -->
<g id="edge25" class="edge">
<title>24-&gt;25</title>
<path fill="none" stroke="#000000" d="M813.7422,-622.9891C813.7422,-612.0272 813.7422,-600.309 813.7422,-589.2667"/>
<polygon fill="#000000" stroke="#000000" points="817.2423,-588.9335 813.7422,-578.9335 810.2423,-588.9335 817.2423,-588.9335"/>
</g>
<!-- 26 -->
<g id="node27" class="node">
<title>26</title>
<path fill="#3964e5" stroke="#000000" d="M1127.7272,-578.9003C1127.7272,-578.9003 945.7572,-578.9003 945.7572,-578.9003 939.7572,-578.9003 933.7572,-572.9003 933.7572,-566.9003 933.7572,-566.9003 933.7572,-515.4997 933.7572,-515.4997 933.7572,-509.4997 939.7572,-503.4997 945.7572,-503.4997 945.7572,-503.4997 1127.7272,-503.4997 1127.7272,-503.4997 1133.7272,-503.4997 1139.7272,-509.4997 1139.7272,-515.4997 1139.7272,-515.4997 1139.7272,-566.9003 1139.7272,-566.9003 1139.7272,-572.9003 1133.7272,-578.9003 1127.7272,-578.9003"/>
<text text-anchor="middle" x="1036.7422" y="-562.2" font-family="Helvetica,sans-Serif" font-size="14.00" fill="#000000">gini = 0.0</text>
<text text-anchor="middle" x="1036.7422" y="-545.4" font-family="Helvetica,sans-Serif" font-size="14.00" fill="#000000">samples = 1</text>
<text text-anchor="middle" x="1036.7422" y="-528.6" font-family="Helvetica,sans-Serif" font-size="14.00" fill="#000000">value = [0, 0, 0, 0, 0, 1, 0, 0, 0]</text>
<text text-anchor="middle" x="1036.7422" y="-511.8" font-family="Helvetica,sans-Serif" font-size="14.00" fill="#000000">class = Indie Rock</text>
</g>
<!-- 24&#45;&gt;26 -->
<g id="edge26" class="edge">
<title>24-&gt;26</title>
<path fill="none" stroke="#000000" d="M893.9353,-623.1699C916.2138,-610.3822 940.3069,-596.553 962.2446,-583.961"/>
<polygon fill="#000000" stroke="#000000" points="964.2485,-586.8464 971.179,-578.8327 960.7638,-580.7754 964.2485,-586.8464"/>
</g>
<!-- 30 -->
<g id="node31" class="node">
<title>30</title>
<path fill="#d7e539" stroke="#000000" d="M1253.7272,-962.9003C1253.7272,-962.9003 1071.7572,-962.9003 1071.7572,-962.9003 1065.7572,-962.9003 1059.7572,-956.9003 1059.7572,-950.9003 1059.7572,-950.9003 1059.7572,-899.4997 1059.7572,-899.4997 1059.7572,-893.4997 1065.7572,-887.4997 1071.7572,-887.4997 1071.7572,-887.4997 1253.7272,-887.4997 1253.7272,-887.4997 1259.7272,-887.4997 1265.7272,-893.4997 1265.7272,-899.4997 1265.7272,-899.4997 1265.7272,-950.9003 1265.7272,-950.9003 1265.7272,-956.9003 1259.7272,-962.9003 1253.7272,-962.9003"/>
<text text-anchor="middle" x="1162.7422" y="-946.2" font-family="Helvetica,sans-Serif" font-size="14.00" fill="#000000">gini = 0.0</text>
<text text-anchor="middle" x="1162.7422" y="-929.4" font-family="Helvetica,sans-Serif" font-size="14.00" fill="#000000">samples = 3</text>
<text text-anchor="middle" x="1162.7422" y="-912.6" font-family="Helvetica,sans-Serif" font-size="14.00" fill="#000000">value = [0, 3, 0, 0, 0, 0, 0, 0, 0]</text>
<text text-anchor="middle" x="1162.7422" y="-895.8" font-family="Helvetica,sans-Serif" font-size="14.00" fill="#000000">class = Classical</text>
</g>
<!-- 29&#45;&gt;30 -->
<g id="edge30" class="edge">
<title>29-&gt;30</title>
<path fill="none" stroke="#000000" d="M1162.7422,-1006.9891C1162.7422,-996.0272 1162.7422,-984.309 1162.7422,-973.2667"/>
<polygon fill="#000000" stroke="#000000" points="1166.2423,-972.9335 1162.7422,-962.9335 1159.2423,-972.9335 1166.2423,-972.9335"/>
</g>
<!-- 31 -->
<g id="node32" class="node">
<title>31</title>
<path fill="#bdcbf6" stroke="#000000" d="M1476.7272,-971.2C1476.7272,-971.2 1294.7572,-971.2 1294.7572,-971.2 1288.7572,-971.2 1282.7572,-965.2 1282.7572,-959.2 1282.7572,-959.2 1282.7572,-891.2 1282.7572,-891.2 1282.7572,-885.2 1288.7572,-879.2 1294.7572,-879.2 1294.7572,-879.2 1476.7272,-879.2 1476.7272,-879.2 1482.7272,-879.2 1488.7272,-885.2 1488.7272,-891.2 1488.7272,-891.2 1488.7272,-959.2 1488.7272,-959.2 1488.7272,-965.2 1482.7272,-971.2 1476.7272,-971.2"/>
<text text-anchor="middle" x="1385.7422" y="-954.6" font-family="Helvetica,sans-Serif" font-size="14.00" fill="#000000">age &lt;= 31.5</text>
<text text-anchor="middle" x="1385.7422" y="-937.8" font-family="Helvetica,sans-Serif" font-size="14.00" fill="#000000">gini = 0.625</text>
<text text-anchor="middle" x="1385.7422" y="-921" font-family="Helvetica,sans-Serif" font-size="14.00" fill="#000000">samples = 4</text>
<text text-anchor="middle" x="1385.7422" y="-904.2" font-family="Helvetica,sans-Serif" font-size="14.00" fill="#000000">value = [0, 1, 1, 0, 0, 2, 0, 0, 0]</text>
<text text-anchor="middle" x="1385.7422" y="-887.4" font-family="Helvetica,sans-Serif" font-size="14.00" fill="#000000">class = Indie Rock</text>
</g>
<!-- 29&#45;&gt;31 -->
<g id="edge31" class="edge">
<title>29-&gt;31</title>
<path fill="none" stroke="#000000" d="M1242.9353,-1007.1699C1260.2674,-997.2214 1278.6978,-986.6425 1296.3571,-976.5062"/>
<polygon fill="#000000" stroke="#000000" points="1298.5811,-979.2653 1305.5116,-971.2516 1295.0964,-973.1943 1298.5811,-979.2653"/>
</g>
<!-- 32 -->
<g id="node33" class="node">
<title>32</title>
<path fill="#9cb2f2" stroke="#000000" d="M1294.7272,-843.2C1294.7272,-843.2 1112.7572,-843.2 1112.7572,-843.2 1106.7572,-843.2 1100.7572,-837.2 1100.7572,-831.2 1100.7572,-831.2 1100.7572,-763.2 1100.7572,-763.2 1100.7572,-757.2 1106.7572,-751.2 1112.7572,-751.2 1112.7572,-751.2 1294.7272,-751.2 1294.7272,-751.2 1300.7272,-751.2 1306.7272,-757.2 1306.7272,-763.2 1306.7272,-763.2 1306.7272,-831.2 1306.7272,-831.2 1306.7272,-837.2 1300.7272,-843.2 1294.7272,-843.2"/>
<text text-anchor="middle" x="1203.7422" y="-826.6" font-family="Helvetica,sans-Serif" font-size="14.00" fill="#000000">gender &lt;= 0.5</text>
<text text-anchor="middle" x="1203.7422" y="-809.8" font-family="Helvetica,sans-Serif" font-size="14.00" fill="#000000">gini = 0.444</text>
<text text-anchor="middle" x="1203.7422" y="-793" font-family="Helvetica,sans-Serif" font-size="14.00" fill="#000000">samples = 3</text>
<text text-anchor="middle" x="1203.7422" y="-776.2" font-family="Helvetica,sans-Serif" font-size="14.00" fill="#000000">value = [0, 1, 0, 0, 0, 2, 0, 0, 0]</text>
<text text-anchor="middle" x="1203.7422" y="-759.4" font-family="Helvetica,sans-Serif" font-size="14.00" fill="#000000">class = Indie Rock</text>
</g>
<!-- 31&#45;&gt;32 -->
<g id="edge32" class="edge">
<title>31-&gt;32</title>
<path fill="none" stroke="#000000" d="M1320.2932,-879.1699C1306.4072,-869.404 1291.6575,-859.0305 1277.4872,-849.0646"/>
<polygon fill="#000000" stroke="#000000" points="1279.415,-846.1415 1269.2219,-843.2516 1275.3881,-851.8673 1279.415,-846.1415"/>
</g>
<!-- 35 -->
<g id="node36" class="node">
<title>35</title>
<path fill="#64e539" stroke="#000000" d="M1517.7272,-834.9003C1517.7272,-834.9003 1335.7572,-834.9003 1335.7572,-834.9003 1329.7572,-834.9003 1323.7572,-828.9003 1323.7572,-822.9003 1323.7572,-822.9003 1323.7572,-771.4997 1323.7572,-771.4997 1323.7572,-765.4997 1329.7572,-759.4997 1335.7572,-759.4997 1335.7572,-759.4997 1517.7272,-759.4997 1517.7272,-759.4997 1523.7272,-759.4997 1529.7272,-765.4997 1529.7272,-771.4997 1529.7272,-771.4997 1529.7272,-822.9003 1529.7272,-822.9003 1529.7272,-828.9003 1523.7272,-834.9003 1517.7272,-834.9003"/>
<text text-anchor="middle" x="1426.7422" y="-818.2" font-family="Helvetica,sans-Serif" font-size="14.00" fill="#000000">gini = 0.0</text>
<text text-anchor="middle" x="1426.7422" y="-801.4" font-family="Helvetica,sans-Serif" font-size="14.00" fill="#000000">samples = 1</text>
<text text-anchor="middle" x="1426.7422" y="-784.6" font-family="Helvetica,sans-Serif" font-size="14.00" fill="#000000">value = [0, 0, 1, 0, 0, 0, 0, 0, 0]</text>
<text text-anchor="middle" x="1426.7422" y="-767.8" font-family="Helvetica,sans-Serif" font-size="14.00" fill="#000000">class = Dance</text>
</g>
<!-- 31&#45;&gt;35 -->
<g id="edge35" class="edge">
<title>31-&gt;35</title>
<path fill="none" stroke="#000000" d="M1400.5441,-878.9891C1404.1278,-867.8012 1407.9637,-855.8255 1411.5643,-844.5845"/>
<polygon fill="#000000" stroke="#000000" points="1414.9383,-845.5246 1414.6557,-834.9335 1408.272,-843.3892 1414.9383,-845.5246"/>
</g>
<!-- 33 -->
<g id="node34" class="node">
<title>33</title>
<path fill="#ffffff" stroke="#000000" d="M1238.7272,-706.9003C1238.7272,-706.9003 1056.7572,-706.9003 1056.7572,-706.9003 1050.7572,-706.9003 1044.7572,-700.9003 1044.7572,-694.9003 1044.7572,-694.9003 1044.7572,-643.4997 1044.7572,-643.4997 1044.7572,-637.4997 1050.7572,-631.4997 1056.7572,-631.4997 1056.7572,-631.4997 1238.7272,-631.4997 1238.7272,-631.4997 1244.7272,-631.4997 1250.7272,-637.4997 1250.7272,-643.4997 1250.7272,-643.4997 1250.7272,-694.9003 1250.7272,-694.9003 1250.7272,-700.9003 1244.7272,-706.9003 1238.7272,-706.9003"/>
<text text-anchor="middle" x="1147.7422" y="-690.2" font-family="Helvetica,sans-Serif" font-size="14.00" fill="#000000">gini = 0.5</text>
<text text-anchor="middle" x="1147.7422" y="-673.4" font-family="Helvetica,sans-Serif" font-size="14.00" fill="#000000">samples = 2</text>
<text text-anchor="middle" x="1147.7422" y="-656.6" font-family="Helvetica,sans-Serif" font-size="14.00" fill="#000000">value = [0, 1, 0, 0, 0, 1, 0, 0, 0]</text>
<text text-anchor="middle" x="1147.7422" y="-639.8" font-family="Helvetica,sans-Serif" font-size="14.00" fill="#000000">class = Classical</text>
</g>
<!-- 32&#45;&gt;33 -->
<g id="edge33" class="edge">
<title>32-&gt;33</title>
<path fill="none" stroke="#000000" d="M1183.5249,-750.9891C1178.5808,-739.6882 1173.285,-727.5835 1168.324,-716.2441"/>
<polygon fill="#000000" stroke="#000000" points="1171.4654,-714.6922 1164.2506,-706.9335 1165.0523,-717.498 1171.4654,-714.6922"/>
</g>
<!-- 34 -->
<g id="node35" class="node">
<title>34</title>
<path fill="#3964e5" stroke="#000000" d="M1461.7272,-706.9003C1461.7272,-706.9003 1279.7572,-706.9003 1279.7572,-706.9003 1273.7572,-706.9003 1267.7572,-700.9003 1267.7572,-694.9003 1267.7572,-694.9003 1267.7572,-643.4997 1267.7572,-643.4997 1267.7572,-637.4997 1273.7572,-631.4997 1279.7572,-631.4997 1279.7572,-631.4997 1461.7272,-631.4997 1461.7272,-631.4997 1467.7272,-631.4997 1473.7272,-637.4997 1473.7272,-643.4997 1473.7272,-643.4997 1473.7272,-694.9003 1473.7272,-694.9003 1473.7272,-700.9003 1467.7272,-706.9003 1461.7272,-706.9003"/>
<text text-anchor="middle" x="1370.7422" y="-690.2" font-family="Helvetica,sans-Serif" font-size="14.00" fill="#000000">gini = 0.0</text>
<text text-anchor="middle" x="1370.7422" y="-673.4" font-family="Helvetica,sans-Serif" font-size="14.00" fill="#000000">samples = 1</text>
<text text-anchor="middle" x="1370.7422" y="-656.6" font-family="Helvetica,sans-Serif" font-size="14.00" fill="#000000">value = [0, 0, 0, 0, 0, 1, 0, 0, 0]</text>
<text text-anchor="middle" x="1370.7422" y="-639.8" font-family="Helvetica,sans-Serif" font-size="14.00" fill="#000000">class = Indie Rock</text>
</g>
<!-- 32&#45;&gt;34 -->
<g id="edge34" class="edge">
<title>32-&gt;34</title>
<path fill="none" stroke="#000000" d="M1264.033,-750.9891C1280.1041,-738.6711 1297.4212,-725.3981 1313.333,-713.2022"/>
<polygon fill="#000000" stroke="#000000" points="1315.7041,-715.7948 1321.5118,-706.9335 1311.4458,-710.239 1315.7041,-715.7948"/>
</g>
<!-- 37 -->
<g id="node38" class="node">
<title>37</title>
<path fill="#ffffff" stroke="#000000" d="M1476.7272,-1090.9003C1476.7272,-1090.9003 1294.7572,-1090.9003 1294.7572,-1090.9003 1288.7572,-1090.9003 1282.7572,-1084.9003 1282.7572,-1078.9003 1282.7572,-1078.9003 1282.7572,-1027.4997 1282.7572,-1027.4997 1282.7572,-1021.4997 1288.7572,-1015.4997 1294.7572,-1015.4997 1294.7572,-1015.4997 1476.7272,-1015.4997 1476.7272,-1015.4997 1482.7272,-1015.4997 1488.7272,-1021.4997 1488.7272,-1027.4997 1488.7272,-1027.4997 1488.7272,-1078.9003 1488.7272,-1078.9003 1488.7272,-1084.9003 1482.7272,-1090.9003 1476.7272,-1090.9003"/>
<text text-anchor="middle" x="1385.7422" y="-1074.2" font-family="Helvetica,sans-Serif" font-size="14.00" fill="#000000">gini = 0.5</text>
<text text-anchor="middle" x="1385.7422" y="-1057.4" font-family="Helvetica,sans-Serif" font-size="14.00" fill="#000000">samples = 2</text>
<text text-anchor="middle" x="1385.7422" y="-1040.6" font-family="Helvetica,sans-Serif" font-size="14.00" fill="#000000">value = [1, 0, 0, 0, 0, 0, 1, 0, 0]</text>
<text text-anchor="middle" x="1385.7422" y="-1023.8" font-family="Helvetica,sans-Serif" font-size="14.00" fill="#000000">class = Acoustic</text>
</g>
<!-- 36&#45;&gt;37 -->
<g id="edge37" class="edge">
<title>36-&gt;37</title>
<path fill="none" stroke="#000000" d="M1385.7422,-1134.9891C1385.7422,-1124.0272 1385.7422,-1112.309 1385.7422,-1101.2667"/>
<polygon fill="#000000" stroke="#000000" points="1389.2423,-1100.9335 1385.7422,-1090.9335 1382.2423,-1100.9335 1389.2423,-1100.9335"/>
</g>
<!-- 38 -->
<g id="node39" class="node">
<title>38</title>
<path fill="#e58139" stroke="#000000" d="M1699.7272,-1090.9003C1699.7272,-1090.9003 1517.7572,-1090.9003 1517.7572,-1090.9003 1511.7572,-1090.9003 1505.7572,-1084.9003 1505.7572,-1078.9003 1505.7572,-1078.9003 1505.7572,-1027.4997 1505.7572,-1027.4997 1505.7572,-1021.4997 1511.7572,-1015.4997 1517.7572,-1015.4997 1517.7572,-1015.4997 1699.7272,-1015.4997 1699.7272,-1015.4997 1705.7272,-1015.4997 1711.7272,-1021.4997 1711.7272,-1027.4997 1711.7272,-1027.4997 1711.7272,-1078.9003 1711.7272,-1078.9003 1711.7272,-1084.9003 1705.7272,-1090.9003 1699.7272,-1090.9003"/>
<text text-anchor="middle" x="1608.7422" y="-1074.2" font-family="Helvetica,sans-Serif" font-size="14.00" fill="#000000">gini = 0.0</text>
<text text-anchor="middle" x="1608.7422" y="-1057.4" font-family="Helvetica,sans-Serif" font-size="14.00" fill="#000000">samples = 1</text>
<text text-anchor="middle" x="1608.7422" y="-1040.6" font-family="Helvetica,sans-Serif" font-size="14.00" fill="#000000">value = [1, 0, 0, 0, 0, 0, 0, 0, 0]</text>
<text text-anchor="middle" x="1608.7422" y="-1023.8" font-family="Helvetica,sans-Serif" font-size="14.00" fill="#000000">class = Acoustic</text>
</g>
<!-- 36&#45;&gt;38 -->
<g id="edge38" class="edge">
<title>36-&gt;38</title>
<path fill="none" stroke="#000000" d="M1465.9353,-1135.1699C1488.2138,-1122.3822 1512.3069,-1108.553 1534.2446,-1095.961"/>
<polygon fill="#000000" stroke="#000000" points="1536.2485,-1098.8464 1543.179,-1090.8327 1532.7638,-1092.7754 1536.2485,-1098.8464"/>
</g>
<!-- 40 -->
<g id="node41" class="node">
<title>40</title>
<path fill="#39d7e5" stroke="#000000" d="M1699.7272,-1218.9003C1699.7272,-1218.9003 1517.7572,-1218.9003 1517.7572,-1218.9003 1511.7572,-1218.9003 1505.7572,-1212.9003 1505.7572,-1206.9003 1505.7572,-1206.9003 1505.7572,-1155.4997 1505.7572,-1155.4997 1505.7572,-1149.4997 1511.7572,-1143.4997 1517.7572,-1143.4997 1517.7572,-1143.4997 1699.7272,-1143.4997 1699.7272,-1143.4997 1705.7272,-1143.4997 1711.7272,-1149.4997 1711.7272,-1155.4997 1711.7272,-1155.4997 1711.7272,-1206.9003 1711.7272,-1206.9003 1711.7272,-1212.9003 1705.7272,-1218.9003 1699.7272,-1218.9003"/>
<text text-anchor="middle" x="1608.7422" y="-1202.2" font-family="Helvetica,sans-Serif" font-size="14.00" fill="#000000">gini = 0.0</text>
<text text-anchor="middle" x="1608.7422" y="-1185.4" font-family="Helvetica,sans-Serif" font-size="14.00" fill="#000000">samples = 5</text>
<text text-anchor="middle" x="1608.7422" y="-1168.6" font-family="Helvetica,sans-Serif" font-size="14.00" fill="#000000">value = [0, 0, 0, 0, 5, 0, 0, 0, 0]</text>
<text text-anchor="middle" x="1608.7422" y="-1151.8" font-family="Helvetica,sans-Serif" font-size="14.00" fill="#000000">class = HipHop</text>
</g>
<!-- 39&#45;&gt;40 -->
<g id="edge40" class="edge">
<title>39-&gt;40</title>
<path fill="none" stroke="#000000" d="M1608.7422,-1262.9891C1608.7422,-1252.0272 1608.7422,-1240.309 1608.7422,-1229.2667"/>
<polygon fill="#000000" stroke="#000000" points="1612.2423,-1228.9335 1608.7422,-1218.9335 1605.2423,-1228.9335 1612.2423,-1228.9335"/>
</g>
<!-- 41 -->
<g id="node42" class="node">
<title>41</title>
<path fill="#3964e5" stroke="#000000" d="M1922.7272,-1218.9003C1922.7272,-1218.9003 1740.7572,-1218.9003 1740.7572,-1218.9003 1734.7572,-1218.9003 1728.7572,-1212.9003 1728.7572,-1206.9003 1728.7572,-1206.9003 1728.7572,-1155.4997 1728.7572,-1155.4997 1728.7572,-1149.4997 1734.7572,-1143.4997 1740.7572,-1143.4997 1740.7572,-1143.4997 1922.7272,-1143.4997 1922.7272,-1143.4997 1928.7272,-1143.4997 1934.7272,-1149.4997 1934.7272,-1155.4997 1934.7272,-1155.4997 1934.7272,-1206.9003 1934.7272,-1206.9003 1934.7272,-1212.9003 1928.7272,-1218.9003 1922.7272,-1218.9003"/>
<text text-anchor="middle" x="1831.7422" y="-1202.2" font-family="Helvetica,sans-Serif" font-size="14.00" fill="#000000">gini = 0.0</text>
<text text-anchor="middle" x="1831.7422" y="-1185.4" font-family="Helvetica,sans-Serif" font-size="14.00" fill="#000000">samples = 3</text>
<text text-anchor="middle" x="1831.7422" y="-1168.6" font-family="Helvetica,sans-Serif" font-size="14.00" fill="#000000">value = [0, 0, 0, 0, 0, 3, 0, 0, 0]</text>
<text text-anchor="middle" x="1831.7422" y="-1151.8" font-family="Helvetica,sans-Serif" font-size="14.00" fill="#000000">class = Indie Rock</text>
</g>
<!-- 39&#45;&gt;41 -->
<g id="edge41" class="edge">
<title>39-&gt;41</title>
<path fill="none" stroke="#000000" d="M1688.9353,-1263.1699C1711.2138,-1250.3822 1735.3069,-1236.553 1757.2446,-1223.961"/>
<polygon fill="#000000" stroke="#000000" points="1759.2485,-1226.8464 1766.179,-1218.8327 1755.7638,-1220.7754 1759.2485,-1226.8464"/>
</g>
</g>
</svg>